<mxfile host="app.diagrams.net" modified="2020-12-22T12:54:49.464Z" agent="5.0 (Windows NT 10.0; Win64; x64) AppleWebKit/537.36 (KHTML, like Gecko) Chrome/87.0.4280.88 Safari/537.36 Edg/87.0.664.66" etag="COavQENM60fQRHeOM5bn" version="14.1.1" type="github">
  <diagram id="7KTe_2K7AGwuItnn4n5i" name="第 1 页">
    <mxGraphModel dx="1038" dy="500" grid="1" gridSize="10" guides="1" tooltips="1" connect="1" arrows="1" fold="1" page="1" pageScale="1" pageWidth="1169" pageHeight="1654" math="0" shadow="0">
      <root>
        <mxCell id="0" />
        <mxCell id="1" parent="0" />
        <mxCell id="jbfbIhLz7mu3rf0doeiF-63" value="" style="rounded=0;whiteSpace=wrap;html=1;" vertex="1" parent="1">
          <mxGeometry x="400" y="60" width="240" height="480" as="geometry" />
        </mxCell>
        <mxCell id="jbfbIhLz7mu3rf0doeiF-64" value="" style="endArrow=classic;html=1;" edge="1" parent="1">
          <mxGeometry width="50" height="50" relative="1" as="geometry">
            <mxPoint x="640" y="105" as="sourcePoint" />
            <mxPoint x="730" y="105" as="targetPoint" />
          </mxGeometry>
        </mxCell>
        <mxCell id="jbfbIhLz7mu3rf0doeiF-65" value="" style="endArrow=classic;html=1;" edge="1" parent="1">
          <mxGeometry width="50" height="50" relative="1" as="geometry">
            <mxPoint x="640" y="135" as="sourcePoint" />
            <mxPoint x="730" y="135" as="targetPoint" />
          </mxGeometry>
        </mxCell>
        <mxCell id="jbfbIhLz7mu3rf0doeiF-66" value="" style="endArrow=classic;html=1;" edge="1" parent="1">
          <mxGeometry width="50" height="50" relative="1" as="geometry">
            <mxPoint x="640" y="165" as="sourcePoint" />
            <mxPoint x="730" y="165" as="targetPoint" />
          </mxGeometry>
        </mxCell>
        <mxCell id="jbfbIhLz7mu3rf0doeiF-67" value="" style="endArrow=classic;html=1;" edge="1" parent="1">
          <mxGeometry width="50" height="50" relative="1" as="geometry">
            <mxPoint x="640" y="195" as="sourcePoint" />
            <mxPoint x="730" y="195" as="targetPoint" />
          </mxGeometry>
        </mxCell>
        <mxCell id="jbfbIhLz7mu3rf0doeiF-68" value="" style="endArrow=classic;html=1;" edge="1" parent="1">
          <mxGeometry width="50" height="50" relative="1" as="geometry">
            <mxPoint x="640" y="225" as="sourcePoint" />
            <mxPoint x="730" y="225" as="targetPoint" />
          </mxGeometry>
        </mxCell>
        <mxCell id="jbfbIhLz7mu3rf0doeiF-69" value="" style="endArrow=classic;html=1;" edge="1" parent="1">
          <mxGeometry width="50" height="50" relative="1" as="geometry">
            <mxPoint x="640" y="255" as="sourcePoint" />
            <mxPoint x="730" y="255" as="targetPoint" />
          </mxGeometry>
        </mxCell>
        <mxCell id="jbfbIhLz7mu3rf0doeiF-70" value="" style="endArrow=classic;html=1;" edge="1" parent="1">
          <mxGeometry width="50" height="50" relative="1" as="geometry">
            <mxPoint x="640" y="315" as="sourcePoint" />
            <mxPoint x="730" y="315" as="targetPoint" />
          </mxGeometry>
        </mxCell>
        <mxCell id="jbfbIhLz7mu3rf0doeiF-71" value="" style="endArrow=classic;html=1;" edge="1" parent="1">
          <mxGeometry width="50" height="50" relative="1" as="geometry">
            <mxPoint x="640" y="345" as="sourcePoint" />
            <mxPoint x="730" y="345" as="targetPoint" />
          </mxGeometry>
        </mxCell>
        <mxCell id="jbfbIhLz7mu3rf0doeiF-72" value="" style="endArrow=classic;html=1;" edge="1" parent="1">
          <mxGeometry width="50" height="50" relative="1" as="geometry">
            <mxPoint x="640" y="375" as="sourcePoint" />
            <mxPoint x="730" y="375" as="targetPoint" />
          </mxGeometry>
        </mxCell>
        <mxCell id="jbfbIhLz7mu3rf0doeiF-73" value="" style="endArrow=classic;html=1;" edge="1" parent="1">
          <mxGeometry width="50" height="50" relative="1" as="geometry">
            <mxPoint x="640" y="405" as="sourcePoint" />
            <mxPoint x="730" y="405" as="targetPoint" />
          </mxGeometry>
        </mxCell>
        <mxCell id="jbfbIhLz7mu3rf0doeiF-74" value="" style="endArrow=classic;html=1;" edge="1" parent="1">
          <mxGeometry width="50" height="50" relative="1" as="geometry">
            <mxPoint x="640" y="435" as="sourcePoint" />
            <mxPoint x="730" y="435" as="targetPoint" />
          </mxGeometry>
        </mxCell>
        <mxCell id="jbfbIhLz7mu3rf0doeiF-75" value="" style="endArrow=classic;html=1;" edge="1" parent="1">
          <mxGeometry width="50" height="50" relative="1" as="geometry">
            <mxPoint x="640" y="465" as="sourcePoint" />
            <mxPoint x="730" y="465" as="targetPoint" />
          </mxGeometry>
        </mxCell>
        <mxCell id="jbfbIhLz7mu3rf0doeiF-76" value="" style="endArrow=classic;html=1;" edge="1" parent="1">
          <mxGeometry width="50" height="50" relative="1" as="geometry">
            <mxPoint x="640" y="285" as="sourcePoint" />
            <mxPoint x="730" y="285" as="targetPoint" />
          </mxGeometry>
        </mxCell>
        <mxCell id="jbfbIhLz7mu3rf0doeiF-77" value="" style="endArrow=classic;html=1;" edge="1" parent="1">
          <mxGeometry width="50" height="50" relative="1" as="geometry">
            <mxPoint x="309" y="170" as="sourcePoint" />
            <mxPoint x="399" y="170" as="targetPoint" />
          </mxGeometry>
        </mxCell>
        <mxCell id="jbfbIhLz7mu3rf0doeiF-78" value="" style="endArrow=classic;html=1;" edge="1" parent="1">
          <mxGeometry width="50" height="50" relative="1" as="geometry">
            <mxPoint x="309" y="200" as="sourcePoint" />
            <mxPoint x="399" y="200" as="targetPoint" />
          </mxGeometry>
        </mxCell>
        <mxCell id="jbfbIhLz7mu3rf0doeiF-79" value="" style="endArrow=classic;html=1;" edge="1" parent="1">
          <mxGeometry width="50" height="50" relative="1" as="geometry">
            <mxPoint x="309" y="230" as="sourcePoint" />
            <mxPoint x="399" y="230" as="targetPoint" />
          </mxGeometry>
        </mxCell>
        <mxCell id="jbfbIhLz7mu3rf0doeiF-80" value="" style="endArrow=classic;html=1;" edge="1" parent="1">
          <mxGeometry width="50" height="50" relative="1" as="geometry">
            <mxPoint x="309" y="260" as="sourcePoint" />
            <mxPoint x="399" y="260" as="targetPoint" />
          </mxGeometry>
        </mxCell>
        <mxCell id="jbfbIhLz7mu3rf0doeiF-81" value="" style="endArrow=classic;html=1;" edge="1" parent="1">
          <mxGeometry width="50" height="50" relative="1" as="geometry">
            <mxPoint x="309" y="290" as="sourcePoint" />
            <mxPoint x="399" y="290" as="targetPoint" />
          </mxGeometry>
        </mxCell>
        <mxCell id="jbfbIhLz7mu3rf0doeiF-82" value="" style="endArrow=classic;html=1;" edge="1" parent="1">
          <mxGeometry width="50" height="50" relative="1" as="geometry">
            <mxPoint x="309" y="320" as="sourcePoint" />
            <mxPoint x="399" y="320" as="targetPoint" />
          </mxGeometry>
        </mxCell>
        <mxCell id="jbfbIhLz7mu3rf0doeiF-83" value="" style="endArrow=classic;html=1;" edge="1" parent="1">
          <mxGeometry width="50" height="50" relative="1" as="geometry">
            <mxPoint x="309" y="380" as="sourcePoint" />
            <mxPoint x="399" y="380" as="targetPoint" />
          </mxGeometry>
        </mxCell>
        <mxCell id="jbfbIhLz7mu3rf0doeiF-84" value="" style="endArrow=classic;html=1;" edge="1" parent="1">
          <mxGeometry width="50" height="50" relative="1" as="geometry">
            <mxPoint x="309" y="410" as="sourcePoint" />
            <mxPoint x="399" y="410" as="targetPoint" />
          </mxGeometry>
        </mxCell>
        <mxCell id="jbfbIhLz7mu3rf0doeiF-85" value="" style="endArrow=classic;html=1;" edge="1" parent="1">
          <mxGeometry width="50" height="50" relative="1" as="geometry">
            <mxPoint x="309" y="440" as="sourcePoint" />
            <mxPoint x="399" y="440" as="targetPoint" />
          </mxGeometry>
        </mxCell>
        <mxCell id="jbfbIhLz7mu3rf0doeiF-86" value="" style="endArrow=classic;html=1;" edge="1" parent="1">
          <mxGeometry width="50" height="50" relative="1" as="geometry">
            <mxPoint x="309" y="470" as="sourcePoint" />
            <mxPoint x="399" y="470" as="targetPoint" />
          </mxGeometry>
        </mxCell>
        <mxCell id="jbfbIhLz7mu3rf0doeiF-87" value="" style="endArrow=classic;html=1;" edge="1" parent="1">
          <mxGeometry width="50" height="50" relative="1" as="geometry">
            <mxPoint x="309" y="500" as="sourcePoint" />
            <mxPoint x="399" y="500" as="targetPoint" />
          </mxGeometry>
        </mxCell>
        <mxCell id="jbfbIhLz7mu3rf0doeiF-89" value="" style="endArrow=classic;html=1;" edge="1" parent="1">
          <mxGeometry width="50" height="50" relative="1" as="geometry">
            <mxPoint x="309" y="350" as="sourcePoint" />
            <mxPoint x="399" y="350" as="targetPoint" />
          </mxGeometry>
        </mxCell>
        <mxCell id="jbfbIhLz7mu3rf0doeiF-90" value="" style="endArrow=classic;html=1;" edge="1" parent="1">
          <mxGeometry width="50" height="50" relative="1" as="geometry">
            <mxPoint x="309" y="110" as="sourcePoint" />
            <mxPoint x="399" y="110" as="targetPoint" />
          </mxGeometry>
        </mxCell>
        <mxCell id="jbfbIhLz7mu3rf0doeiF-91" value="" style="endArrow=classic;html=1;" edge="1" parent="1">
          <mxGeometry width="50" height="50" relative="1" as="geometry">
            <mxPoint x="309" y="80" as="sourcePoint" />
            <mxPoint x="399" y="80" as="targetPoint" />
          </mxGeometry>
        </mxCell>
        <mxCell id="jbfbIhLz7mu3rf0doeiF-92" value="" style="endArrow=classic;html=1;" edge="1" parent="1">
          <mxGeometry width="50" height="50" relative="1" as="geometry">
            <mxPoint x="309" y="140" as="sourcePoint" />
            <mxPoint x="399" y="140" as="targetPoint" />
          </mxGeometry>
        </mxCell>
        <mxCell id="jbfbIhLz7mu3rf0doeiF-93" value="&lt;span style=&quot;font-size: 22px&quot;&gt;&lt;b&gt;EX&lt;/b&gt;&lt;/span&gt;" style="text;html=1;strokeColor=none;fillColor=none;align=center;verticalAlign=middle;whiteSpace=wrap;rounded=0;" vertex="1" parent="1">
          <mxGeometry x="500" y="30" width="40" height="20" as="geometry" />
        </mxCell>
        <mxCell id="jbfbIhLz7mu3rf0doeiF-94" value="ex_aluop_i[7:0]" style="text;html=1;strokeColor=none;fillColor=none;align=center;verticalAlign=middle;whiteSpace=wrap;rounded=0;" vertex="1" parent="1">
          <mxGeometry x="907" y="124.5" width="40" height="20" as="geometry" />
        </mxCell>
        <mxCell id="jbfbIhLz7mu3rf0doeiF-95" value="ex_wd_i[4:0]" style="text;html=1;strokeColor=none;fillColor=none;align=center;verticalAlign=middle;whiteSpace=wrap;rounded=0;" vertex="1" parent="1">
          <mxGeometry x="900" y="155.5" width="40" height="20" as="geometry" />
        </mxCell>
        <mxCell id="jbfbIhLz7mu3rf0doeiF-96" value="ex_wdata_i[31:0]" style="text;html=1;strokeColor=none;fillColor=none;align=center;verticalAlign=middle;whiteSpace=wrap;rounded=0;" vertex="1" parent="1">
          <mxGeometry x="910" y="187.5" width="40" height="20" as="geometry" />
        </mxCell>
        <mxCell id="jbfbIhLz7mu3rf0doeiF-97" value="ex_wreg_i" style="text;html=1;strokeColor=none;fillColor=none;align=center;verticalAlign=middle;whiteSpace=wrap;rounded=0;" vertex="1" parent="1">
          <mxGeometry x="900" y="455.5" width="40" height="20" as="geometry" />
        </mxCell>
        <mxCell id="jbfbIhLz7mu3rf0doeiF-98" value="rst" style="text;html=1;strokeColor=none;fillColor=none;align=center;verticalAlign=middle;whiteSpace=wrap;rounded=0;" vertex="1" parent="1">
          <mxGeometry x="880" y="485.5" width="40" height="20" as="geometry" />
        </mxCell>
        <mxCell id="jbfbIhLz7mu3rf0doeiF-99" value="mem_wreg_i" style="text;html=1;strokeColor=none;fillColor=none;align=center;verticalAlign=middle;whiteSpace=wrap;rounded=0;" vertex="1" parent="1">
          <mxGeometry x="900" y="425.5" width="40" height="20" as="geometry" />
        </mxCell>
        <mxCell id="jbfbIhLz7mu3rf0doeiF-100" value="inst_i[31:0]" style="text;html=1;strokeColor=none;fillColor=none;align=center;verticalAlign=middle;whiteSpace=wrap;rounded=0;" vertex="1" parent="1">
          <mxGeometry x="894" y="215.5" width="40" height="20" as="geometry" />
        </mxCell>
        <mxCell id="jbfbIhLz7mu3rf0doeiF-101" value="is_in_dalayslot_i" style="text;html=1;strokeColor=none;fillColor=none;align=center;verticalAlign=middle;whiteSpace=wrap;rounded=0;" vertex="1" parent="1">
          <mxGeometry x="910" y="245.5" width="40" height="20" as="geometry" />
        </mxCell>
        <mxCell id="jbfbIhLz7mu3rf0doeiF-102" value="mem_wd_i[4:0]" style="text;html=1;strokeColor=none;fillColor=none;align=center;verticalAlign=middle;whiteSpace=wrap;rounded=0;" vertex="1" parent="1">
          <mxGeometry x="907" y="275.5" width="40" height="20" as="geometry" />
        </mxCell>
        <mxCell id="jbfbIhLz7mu3rf0doeiF-103" value="mem_wdata_i[31:0]" style="text;html=1;strokeColor=none;fillColor=none;align=center;verticalAlign=middle;whiteSpace=wrap;rounded=0;" vertex="1" parent="1">
          <mxGeometry x="919" y="303.5" width="40" height="20" as="geometry" />
        </mxCell>
        <mxCell id="jbfbIhLz7mu3rf0doeiF-104" value="pc_i[31:0]" style="text;html=1;strokeColor=none;fillColor=none;align=center;verticalAlign=middle;whiteSpace=wrap;rounded=0;" vertex="1" parent="1">
          <mxGeometry x="894" y="335.5" width="40" height="20" as="geometry" />
        </mxCell>
        <mxCell id="jbfbIhLz7mu3rf0doeiF-105" value="reg1_data_i[31:0]" style="text;html=1;strokeColor=none;fillColor=none;align=center;verticalAlign=middle;whiteSpace=wrap;rounded=0;" vertex="1" parent="1">
          <mxGeometry x="914" y="366.5" width="40" height="20" as="geometry" />
        </mxCell>
        <mxCell id="jbfbIhLz7mu3rf0doeiF-106" value="reg2_data_i[31:0]" style="text;html=1;strokeColor=none;fillColor=none;align=center;verticalAlign=middle;whiteSpace=wrap;rounded=0;" vertex="1" parent="1">
          <mxGeometry x="914" y="395.5" width="40" height="20" as="geometry" />
        </mxCell>
        <mxCell id="jbfbIhLz7mu3rf0doeiF-107" value="aluop_i[7:0]" style="text;html=1;strokeColor=none;fillColor=none;align=center;verticalAlign=middle;whiteSpace=wrap;rounded=0;" vertex="1" parent="1">
          <mxGeometry x="425" y="70" width="40" height="20" as="geometry" />
        </mxCell>
        <mxCell id="jbfbIhLz7mu3rf0doeiF-108" value="alusel_i[2:0]" style="text;html=1;strokeColor=none;fillColor=none;align=center;verticalAlign=middle;whiteSpace=wrap;rounded=0;" vertex="1" parent="1">
          <mxGeometry x="425" y="100" width="40" height="20" as="geometry" />
        </mxCell>
        <mxCell id="jbfbIhLz7mu3rf0doeiF-109" value="cnt_i[1:0]" style="text;html=1;strokeColor=none;fillColor=none;align=center;verticalAlign=middle;whiteSpace=wrap;rounded=0;" vertex="1" parent="1">
          <mxGeometry x="425" y="129" width="40" height="20" as="geometry" />
        </mxCell>
        <mxCell id="jbfbIhLz7mu3rf0doeiF-110" value="&lt;font style=&quot;font-size: 11px&quot;&gt;is_in_delat_slot_i&lt;/font&gt;" style="text;html=1;strokeColor=none;fillColor=none;align=center;verticalAlign=middle;whiteSpace=wrap;rounded=0;" vertex="1" parent="1">
          <mxGeometry x="440" y="160" width="40" height="20" as="geometry" />
        </mxCell>
        <mxCell id="jbfbIhLz7mu3rf0doeiF-111" value="link_address_i[31:0]" style="text;html=1;strokeColor=none;fillColor=none;align=center;verticalAlign=middle;whiteSpace=wrap;rounded=0;" vertex="1" parent="1">
          <mxGeometry x="446" y="191" width="40" height="20" as="geometry" />
        </mxCell>
        <mxCell id="jbfbIhLz7mu3rf0doeiF-112" value="reg1_i[31:0]" style="text;html=1;strokeColor=none;fillColor=none;align=center;verticalAlign=middle;whiteSpace=wrap;rounded=0;" vertex="1" parent="1">
          <mxGeometry x="427" y="221" width="40" height="20" as="geometry" />
        </mxCell>
        <mxCell id="jbfbIhLz7mu3rf0doeiF-113" value="reg2_i[31:0]" style="text;html=1;strokeColor=none;fillColor=none;align=center;verticalAlign=middle;whiteSpace=wrap;rounded=0;" vertex="1" parent="1">
          <mxGeometry x="425" y="250" width="40" height="20" as="geometry" />
        </mxCell>
        <mxCell id="jbfbIhLz7mu3rf0doeiF-114" value="wd_i[4:0]" style="text;html=1;strokeColor=none;fillColor=none;align=center;verticalAlign=middle;whiteSpace=wrap;rounded=0;" vertex="1" parent="1">
          <mxGeometry x="416" y="280" width="40" height="20" as="geometry" />
        </mxCell>
        <mxCell id="jbfbIhLz7mu3rf0doeiF-115" value="wreg_i" style="text;html=1;strokeColor=none;fillColor=none;align=center;verticalAlign=middle;whiteSpace=wrap;rounded=0;" vertex="1" parent="1">
          <mxGeometry x="427" y="311" width="40" height="20" as="geometry" />
        </mxCell>
        <mxCell id="jbfbIhLz7mu3rf0doeiF-116" value="hi_i[31:0]" style="text;html=1;strokeColor=none;fillColor=none;align=center;verticalAlign=middle;whiteSpace=wrap;rounded=0;" vertex="1" parent="1">
          <mxGeometry x="427" y="340" width="40" height="20" as="geometry" />
        </mxCell>
        <mxCell id="jbfbIhLz7mu3rf0doeiF-117" value="lo_i[31:0]" style="text;html=1;strokeColor=none;fillColor=none;align=center;verticalAlign=middle;whiteSpace=wrap;rounded=0;" vertex="1" parent="1">
          <mxGeometry x="427" y="371" width="40" height="20" as="geometry" />
        </mxCell>
        <mxCell id="jbfbIhLz7mu3rf0doeiF-118" value="hilo_temp_i[63:0]" style="text;html=1;strokeColor=none;fillColor=none;align=center;verticalAlign=middle;whiteSpace=wrap;rounded=0;" vertex="1" parent="1">
          <mxGeometry x="437" y="403" width="40" height="20" as="geometry" />
        </mxCell>
        <mxCell id="jbfbIhLz7mu3rf0doeiF-119" value="wb_hi_i[31:0]" style="text;html=1;strokeColor=none;fillColor=none;align=center;verticalAlign=middle;whiteSpace=wrap;rounded=0;" vertex="1" parent="1">
          <mxGeometry x="427" y="430" width="40" height="20" as="geometry" />
        </mxCell>
        <mxCell id="jbfbIhLz7mu3rf0doeiF-120" value="wb_lo_i[31:0]" style="text;html=1;strokeColor=none;fillColor=none;align=center;verticalAlign=middle;whiteSpace=wrap;rounded=0;" vertex="1" parent="1">
          <mxGeometry x="431" y="460" width="40" height="20" as="geometry" />
        </mxCell>
        <mxCell id="jbfbIhLz7mu3rf0doeiF-121" value="rst" style="text;html=1;strokeColor=none;fillColor=none;align=center;verticalAlign=middle;whiteSpace=wrap;rounded=0;" vertex="1" parent="1">
          <mxGeometry x="435" y="490" width="40" height="20" as="geometry" />
        </mxCell>
        <mxCell id="jbfbIhLz7mu3rf0doeiF-123" value="aluop_o[7:0]" style="text;html=1;strokeColor=none;fillColor=none;align=center;verticalAlign=middle;whiteSpace=wrap;rounded=0;" vertex="1" parent="1">
          <mxGeometry x="582" y="98" width="40" height="20" as="geometry" />
        </mxCell>
        <mxCell id="jbfbIhLz7mu3rf0doeiF-124" value="cnt_o[1:0]" style="text;html=1;strokeColor=none;fillColor=none;align=center;verticalAlign=middle;whiteSpace=wrap;rounded=0;" vertex="1" parent="1">
          <mxGeometry x="584" y="126" width="40" height="20" as="geometry" />
        </mxCell>
        <mxCell id="jbfbIhLz7mu3rf0doeiF-125" value="hi_o[31:0]" style="text;html=1;strokeColor=none;fillColor=none;align=center;verticalAlign=middle;whiteSpace=wrap;rounded=0;" vertex="1" parent="1">
          <mxGeometry x="585" y="160" width="40" height="20" as="geometry" />
        </mxCell>
        <mxCell id="jbfbIhLz7mu3rf0doeiF-126" style="edgeStyle=orthogonalEdgeStyle;rounded=0;orthogonalLoop=1;jettySize=auto;html=1;exitX=0.5;exitY=1;exitDx=0;exitDy=0;" edge="1" parent="1" source="jbfbIhLz7mu3rf0doeiF-125" target="jbfbIhLz7mu3rf0doeiF-125">
          <mxGeometry relative="1" as="geometry" />
        </mxCell>
        <mxCell id="jbfbIhLz7mu3rf0doeiF-127" value="lo_o[31:0]" style="text;html=1;strokeColor=none;fillColor=none;align=center;verticalAlign=middle;whiteSpace=wrap;rounded=0;" vertex="1" parent="1">
          <mxGeometry x="585" y="187" width="40" height="20" as="geometry" />
        </mxCell>
        <mxCell id="jbfbIhLz7mu3rf0doeiF-128" style="edgeStyle=orthogonalEdgeStyle;rounded=0;orthogonalLoop=1;jettySize=auto;html=1;exitX=0.5;exitY=1;exitDx=0;exitDy=0;" edge="1" parent="1" source="jbfbIhLz7mu3rf0doeiF-127" target="jbfbIhLz7mu3rf0doeiF-127">
          <mxGeometry relative="1" as="geometry" />
        </mxCell>
        <mxCell id="jbfbIhLz7mu3rf0doeiF-129" value="hilo_temp_o[63:0]" style="text;html=1;strokeColor=none;fillColor=none;align=center;verticalAlign=middle;whiteSpace=wrap;rounded=0;" vertex="1" parent="1">
          <mxGeometry x="565" y="215.5" width="40" height="20" as="geometry" />
        </mxCell>
        <mxCell id="jbfbIhLz7mu3rf0doeiF-130" style="edgeStyle=orthogonalEdgeStyle;rounded=0;orthogonalLoop=1;jettySize=auto;html=1;exitX=0.5;exitY=1;exitDx=0;exitDy=0;" edge="1" parent="1" source="jbfbIhLz7mu3rf0doeiF-129" target="jbfbIhLz7mu3rf0doeiF-129">
          <mxGeometry relative="1" as="geometry" />
        </mxCell>
        <mxCell id="jbfbIhLz7mu3rf0doeiF-131" value="mem_addr_i[31:0]" style="text;html=1;strokeColor=none;fillColor=none;align=center;verticalAlign=middle;whiteSpace=wrap;rounded=0;" vertex="1" parent="1">
          <mxGeometry x="565" y="250" width="40" height="20" as="geometry" />
        </mxCell>
        <mxCell id="jbfbIhLz7mu3rf0doeiF-132" style="edgeStyle=orthogonalEdgeStyle;rounded=0;orthogonalLoop=1;jettySize=auto;html=1;exitX=0.5;exitY=1;exitDx=0;exitDy=0;" edge="1" parent="1" source="jbfbIhLz7mu3rf0doeiF-131" target="jbfbIhLz7mu3rf0doeiF-131">
          <mxGeometry relative="1" as="geometry" />
        </mxCell>
        <mxCell id="jbfbIhLz7mu3rf0doeiF-133" value="reg2_o[31:0]" style="text;html=1;strokeColor=none;fillColor=none;align=center;verticalAlign=middle;whiteSpace=wrap;rounded=0;" vertex="1" parent="1">
          <mxGeometry x="582" y="275.5" width="40" height="20" as="geometry" />
        </mxCell>
        <mxCell id="jbfbIhLz7mu3rf0doeiF-134" style="edgeStyle=orthogonalEdgeStyle;rounded=0;orthogonalLoop=1;jettySize=auto;html=1;exitX=0.5;exitY=1;exitDx=0;exitDy=0;" edge="1" parent="1" source="jbfbIhLz7mu3rf0doeiF-133" target="jbfbIhLz7mu3rf0doeiF-133">
          <mxGeometry relative="1" as="geometry" />
        </mxCell>
        <mxCell id="jbfbIhLz7mu3rf0doeiF-135" value="stallreq" style="text;html=1;strokeColor=none;fillColor=none;align=center;verticalAlign=middle;whiteSpace=wrap;rounded=0;" vertex="1" parent="1">
          <mxGeometry x="585" y="310" width="40" height="20" as="geometry" />
        </mxCell>
        <mxCell id="jbfbIhLz7mu3rf0doeiF-136" style="edgeStyle=orthogonalEdgeStyle;rounded=0;orthogonalLoop=1;jettySize=auto;html=1;exitX=0.5;exitY=1;exitDx=0;exitDy=0;" edge="1" parent="1" source="jbfbIhLz7mu3rf0doeiF-135" target="jbfbIhLz7mu3rf0doeiF-135">
          <mxGeometry relative="1" as="geometry" />
        </mxCell>
        <mxCell id="jbfbIhLz7mu3rf0doeiF-137" value="wd_o[4:0]" style="text;html=1;strokeColor=none;fillColor=none;align=center;verticalAlign=middle;whiteSpace=wrap;rounded=0;" vertex="1" parent="1">
          <mxGeometry x="582" y="339" width="40" height="20" as="geometry" />
        </mxCell>
        <mxCell id="jbfbIhLz7mu3rf0doeiF-138" style="edgeStyle=orthogonalEdgeStyle;rounded=0;orthogonalLoop=1;jettySize=auto;html=1;exitX=0.5;exitY=1;exitDx=0;exitDy=0;" edge="1" parent="1" source="jbfbIhLz7mu3rf0doeiF-137" target="jbfbIhLz7mu3rf0doeiF-137">
          <mxGeometry relative="1" as="geometry" />
        </mxCell>
        <mxCell id="jbfbIhLz7mu3rf0doeiF-139" value="wdata_o[31:0]" style="text;html=1;strokeColor=none;fillColor=none;align=center;verticalAlign=middle;whiteSpace=wrap;rounded=0;" vertex="1" parent="1">
          <mxGeometry x="578" y="366.5" width="40" height="20" as="geometry" />
        </mxCell>
        <mxCell id="jbfbIhLz7mu3rf0doeiF-140" value="whilo_o[31:0]" style="text;html=1;strokeColor=none;fillColor=none;align=center;verticalAlign=middle;whiteSpace=wrap;rounded=0;" vertex="1" parent="1">
          <mxGeometry x="578" y="395.5" width="40" height="20" as="geometry" />
        </mxCell>
        <mxCell id="jbfbIhLz7mu3rf0doeiF-141" value="whilo_o" style="text;html=1;strokeColor=none;fillColor=none;align=center;verticalAlign=middle;whiteSpace=wrap;rounded=0;" vertex="1" parent="1">
          <mxGeometry x="584" y="427" width="40" height="20" as="geometry" />
        </mxCell>
        <mxCell id="jbfbIhLz7mu3rf0doeiF-142" value="wreg_o" style="text;html=1;strokeColor=none;fillColor=none;align=center;verticalAlign=middle;whiteSpace=wrap;rounded=0;" vertex="1" parent="1">
          <mxGeometry x="582" y="455.5" width="40" height="20" as="geometry" />
        </mxCell>
      </root>
    </mxGraphModel>
  </diagram>
</mxfile>
